<svg id="图层_1" data-name="图层 1" xmlns="http://www.w3.org/2000/svg" viewBox="0 0 784 784"><defs><style>.cls-1{fill:none;}</style></defs><title>删除</title><path d="M499.88,108c-216.5,0-392,175.5-392,392s175.5,392,392,392,392-175.5,392-392-175.5-392-392-392ZM791,500.09a30,30,0,0,1-30,30H238.8a30,30,0,0,1-30-30v-.17a30,30,0,0,1,30-30H761a30,30,0,0,1,30,30Z" transform="translate(-107.88 -108)"/><path d="M732.45,500.07" transform="translate(-107.88 -108)"/><rect class="cls-1" x="0.12" width="783.88" height="784"/></svg>