<svg id="图层_1" data-name="图层 1" xmlns="http://www.w3.org/2000/svg" viewBox="0 0 496 432"><defs><style>.cls-1{fill:#003df0;}.cls-2{fill:#3a6eff;}.cls-3{fill:#ebf1f7;}.cls-4{fill:#ffa326;}</style></defs><title>文件夹</title><path class="cls-1" d="M748,412H252V300a16,16,0,0,1,16-16H446.56a16,16,0,0,1,14.56,9.28l21,29.44A16,16,0,0,0,496.72,332H732a16,16,0,0,1,16,16Zm0,0" transform="translate(-252 -284)"/><path class="cls-2" d="M732,716H268a16,16,0,0,1-16-16V412H748V700a16,16,0,0,1-16,16Zm0,0" transform="translate(-252 -284)"/><path class="cls-3" d="M716,412H284V388a16,16,0,0,1,16-16H700a16,16,0,0,1,16,16Zm0,0" transform="translate(-252 -284)"/><path class="cls-4" d="M550.32,328h-48a16,16,0,0,1-13-6.64l-24-33.36h59.92a7.86,7.86,0,0,1,6.48,3.36l21.84,30.32a4,4,0,0,1-3.28,6.32Zm0,0" transform="translate(-252 -284)"/></svg>